<?xml version="1.0" standalone="no"?>
<!DOCTYPE svg PUBLIC "-//W3C//DTD SVG 20010904//EN"
 "http://www.w3.org/TR/2001/REC-SVG-20010904/DTD/svg10.dtd">
<svg version="1.0" xmlns="http://www.w3.org/2000/svg"
 width="3898.000000pt" height="3898.000000pt" viewBox="0 0 3898.000000 3898.000000"
 preserveAspectRatio="xMidYMid meet">
<metadata>
Created by potrace 1.11, written by Peter Selinger 2001-2013
</metadata>
<g transform="translate(0.000000,3898.000000) scale(0.100000,-0.100000)"
fill="#000000" stroke="none">
<path d="M354 19490 l0 -11340 4607 0 4607 0 198 317 c244 392 271 435 284
450 5 7 10 15 10 18 0 3 24 43 53 88 60 97 57 92 138 222 35 55 83 132 108
172 53 83 55 85 371 593 132 212 245 392 250 400 6 8 96 152 200 320 104 168
194 312 200 320 5 8 46 74 91 145 205 331 300 481 309 495 6 8 92 146 191 305
99 160 195 313 213 340 18 28 36 57 39 65 4 8 36 60 71 115 35 55 106 168 157
250 51 83 116 186 145 230 50 78 126 200 233 373 29 48 69 111 87 140 34 51
88 139 111 177 6 11 96 155 200 320 103 165 192 308 198 318 11 19 216 346
281 447 22 36 269 430 547 875 278 446 616 988 753 1205 136 217 252 404 258
415 7 11 29 47 50 80 43 67 95 150 113 180 13 23 275 441 453 725 68 107 130
207 139 222 9 15 89 143 178 285 88 142 209 335 267 428 58 94 110 177 116
185 37 55 70 112 70 121 0 6 -15 34 -33 62 -39 59 -125 197 -506 807 -150 239
-278 444 -284 455 -7 11 -21 33 -32 50 -11 16 -42 67 -70 112 -27 46 -149 241
-270 433 -121 193 -225 358 -230 367 -6 10 -17 29 -26 43 -9 14 -47 75 -84
135 -38 61 -82 133 -100 160 -38 59 -172 273 -229 366 -23 36 -162 260 -311
497 -148 238 -299 479 -335 537 -104 168 -670 1074 -716 1145 -22 36 -72 115
-109 175 -38 61 -83 133 -101 160 -17 28 -122 194 -231 370 -110 176 -280 448
-378 605 -98 157 -199 319 -225 360 -26 41 -68 109 -94 150 -26 41 -53 84 -59
95 -7 11 -22 34 -34 52 -13 17 -23 34 -23 37 0 2 -36 61 -80 130 -44 70 -80
129 -80 132 0 2 -5 10 -10 17 -14 15 -190 298 -190 303 0 3 -5 10 -10 17 -6 7
-47 71 -91 142 -45 72 -91 146 -104 165 -21 32 -253 404 -465 745 -48 77 -228
365 -400 640 -172 275 -358 572 -413 660 -54 88 -109 176 -122 195 -12 19 -53
85 -90 145 -38 61 -83 133 -100 160 -18 28 -67 106 -110 175 -42 69 -87 141
-100 160 -43 66 -170 270 -180 287 -5 10 -20 35 -33 56 l-24 37 -4607 0 -4607
0 0 -11340z m4646 11278 c17 -29 35 -60 40 -68 6 -8 48 -78 95 -155 47 -77 90
-147 95 -155 71 -115 176 -287 180 -295 3 -5 17 -29 33 -52 15 -24 27 -45 27
-48 0 -3 12 -24 27 -48 15 -23 96 -161 181 -307 85 -146 162 -278 172 -295 10
-16 27 -46 38 -65 11 -19 69 -123 129 -230 60 -107 127 -226 148 -265 21 -38
63 -117 95 -175 107 -196 125 -230 292 -550 114 -217 518 -1032 518 -1045 0
-2 23 -52 51 -111 240 -509 544 -1233 724 -1724 31 -85 61 -164 65 -175 20
-44 127 -354 202 -585 44 -135 83 -254 88 -265 8 -20 71 -231 74 -250 1 -5 9
-32 18 -60 9 -27 20 -63 24 -80 4 -16 8 -34 10 -40 1 -5 21 -74 43 -153 38
-131 126 -468 135 -517 3 -11 19 -77 36 -147 32 -131 34 -141 50 -218 5 -25
18 -85 29 -135 11 -49 22 -101 24 -115 3 -14 17 -86 31 -160 14 -74 28 -144
30 -156 9 -46 66 -382 71 -419 4 -22 8 -55 10 -74 4 -32 8 -59 19 -121 3 -14
10 -68 16 -120 6 -52 13 -106 15 -120 6 -40 24 -190 30 -245 2 -27 7 -75 10
-105 12 -112 14 -137 20 -220 4 -46 9 -88 11 -92 3 -4 3 -8 0 -8 -3 0 -18 19
-33 43 -119 183 -315 396 -489 529 -83 63 -323 218 -338 218 -2 0 -37 15 -78
34 -204 94 -470 165 -683 182 -176 15 -393 8 -527 -16 -29 -5 -69 -12 -88 -15
-89 -15 -335 -88 -355 -106 -5 -5 -15 -9 -21 -9 -22 0 -198 -87 -295 -145
-103 -63 -251 -171 -314 -229 -22 -21 -53 -50 -70 -65 -60 -54 -157 -165 -224
-254 -59 -79 -193 -287 -200 -309 -1 -4 -20 -46 -41 -94 -74 -159 -146 -402
-166 -560 -3 -27 -9 -74 -13 -104 -4 -30 -8 2459 -9 5533 0 3073 1 5587 3
5587 2 0 18 -24 35 -52z m-33 -11420 c-3 -8 -6 -5 -6 6 -1 11 2 17 5 13 3 -3
4 -12 1 -19z m7 -96 c4 -40 9 -78 11 -85 2 -7 7 -30 10 -52 3 -22 13 -69 21
-105 9 -36 17 -69 18 -75 5 -22 39 -131 47 -150 4 -11 24 -60 44 -108 32 -80
90 -198 115 -237 5 -8 31 -49 57 -92 250 -401 656 -719 1118 -873 163 -55 324
-89 480 -102 144 -12 402 -6 494 12 10 2 34 6 52 9 19 3 66 12 104 21 39 8 80
18 93 20 12 3 64 19 114 36 316 106 600 282 834 517 107 107 240 270 290 354
l25 43 -7 -105 c-3 -58 -8 -112 -9 -121 -2 -9 -6 -52 -10 -95 -4 -43 -8 -90
-10 -104 -4 -27 -11 -94 -20 -180 -4 -30 -8 -66 -10 -80 -2 -14 -6 -43 -9 -65
-21 -161 -27 -204 -30 -221 -5 -26 -15 -91 -22 -139 -6 -47 -56 -344 -69 -415
-5 -26 -81 -412 -91 -460 -30 -148 -127 -563 -144 -615 -5 -16 -23 -86 -40
-155 -109 -438 -342 -1174 -540 -1710 -17 -47 -40 -107 -49 -135 -23 -64 -100
-264 -111 -290 -5 -11 -48 -117 -95 -235 -87 -216 -253 -610 -299 -711 -13
-30 -42 -94 -64 -144 -22 -49 -57 -126 -77 -170 -20 -44 -48 -105 -62 -135
-167 -362 -521 -1076 -691 -1390 -19 -36 -62 -117 -95 -180 -33 -63 -68 -128
-78 -145 -10 -16 -33 -59 -52 -95 -19 -36 -51 -94 -71 -128 -20 -35 -36 -65
-36 -67 0 -1 -25 -47 -57 -101 -31 -55 -68 -121 -83 -149 -15 -27 -51 -90 -80
-140 -29 -49 -60 -104 -70 -121 -114 -197 -388 -664 -443 -754 -39 -63 -106
-173 -150 -245 -43 -71 -87 -141 -98 -156 -10 -15 -19 -32 -19 -37 0 -6 -3
-12 -7 -14 -5 -1 -15 -15 -23 -30 -43 -78 -85 -143 -92 -146 -4 -2 -8 -10 -8
-17 0 -8 -4 -16 -9 -20 -6 -3 -10 2143 -10 5581 0 3072 2 5584 3 5583 2 -2 7
-37 10 -77z"/>
<path d="M13917 30673 c53 -87 108 -178 123 -203 15 -25 74 -121 132 -215 86
-139 327 -546 406 -686 11 -19 63 -108 116 -197 53 -90 96 -165 96 -167 0 -1
34 -63 76 -136 42 -74 92 -163 111 -199 20 -36 46 -83 58 -105 12 -22 44 -80
70 -130 26 -49 51 -94 55 -100 4 -5 40 -73 80 -150 40 -77 76 -144 80 -150 4
-5 60 -113 125 -240 65 -126 122 -237 127 -245 10 -19 295 -602 341 -700 83
-176 174 -376 244 -534 41 -93 83 -188 93 -210 105 -232 359 -864 487 -1211
140 -381 347 -1004 398 -1195 2 -8 18 -62 35 -120 119 -406 265 -992 336
-1355 8 -44 17 -91 20 -105 3 -14 11 -56 19 -95 17 -85 81 -461 90 -530 10
-67 12 -85 19 -120 3 -16 8 -48 10 -70 7 -56 15 -111 20 -154 16 -116 33 -255
41 -351 7 -68 16 -151 20 -185 2 -16 7 -68 10 -115 3 -46 8 -100 10 -120 2
-19 7 -84 10 -145 3 -60 8 -132 10 -160 24 -317 24 -1260 1 -1560 -3 -27 -7
-97 -11 -155 -4 -58 -8 -125 -10 -150 -2 -25 -6 -81 -9 -125 -4 -44 -9 -102
-12 -130 -11 -99 -13 -121 -19 -180 -9 -90 -15 -143 -25 -220 -13 -97 -19
-143 -25 -195 -6 -51 -14 -113 -20 -150 -2 -14 -11 -72 -20 -130 -8 -58 -17
-112 -20 -120 -2 -8 -6 -37 -10 -65 -3 -27 -10 -68 -15 -90 -5 -22 -11 -56
-14 -75 -3 -19 -14 -82 -25 -140 -11 -58 -23 -118 -25 -135 -5 -24 -30 -148
-52 -250 -2 -11 -7 -36 -10 -55 -3 -19 -8 -38 -10 -41 -2 -3 -6 -20 -9 -38 -3
-18 -15 -69 -25 -114 -11 -45 -23 -93 -26 -107 -6 -32 -78 -318 -110 -440 -14
-52 -27 -102 -29 -110 -4 -22 -81 -291 -110 -385 -77 -258 -103 -339 -160
-515 -202 -618 -528 -1469 -765 -1995 -10 -22 -45 -101 -78 -175 -33 -74 -76
-169 -95 -210 -19 -41 -49 -106 -67 -145 -149 -327 -553 -1135 -745 -1490 -26
-49 -64 -119 -83 -155 -19 -36 -56 -103 -82 -150 -26 -47 -64 -116 -85 -155
-52 -97 -251 -448 -291 -515 -18 -30 -43 -72 -54 -93 -12 -21 -48 -83 -81
-138 -32 -55 -59 -101 -59 -103 0 -3 -22 -40 -48 -83 -27 -43 -63 -105 -81
-138 -31 -57 -178 -300 -227 -375 -12 -19 -47 -75 -77 -125 -30 -49 -97 -161
-150 -247 l-96 -158 2302 0 2302 0 22 33 c25 37 590 943 607 971 6 11 15 25
19 30 4 6 134 214 288 461 154 248 291 466 303 485 46 70 191 304 195 314 2 6
8 15 13 21 6 5 46 70 91 143 45 73 219 351 387 619 168 268 307 492 309 497 2
6 8 15 13 21 5 5 64 98 130 205 66 107 135 218 153 245 18 28 74 118 125 200
51 83 107 173 125 200 62 97 250 399 254 409 2 6 8 15 13 21 5 5 371 591 814
1300 443 710 816 1306 828 1325 13 19 87 139 166 265 78 127 153 246 165 265
13 19 47 73 75 120 29 47 67 108 85 135 18 28 231 370 475 760 243 391 452
726 465 745 13 19 47 73 75 120 29 47 67 108 85 135 98 152 800 1281 803 1290
1 6 -30 62 -69 125 -40 63 -100 159 -133 213 -34 54 -151 241 -261 417 -110
176 -223 357 -252 402 -28 46 -71 115 -94 153 -23 39 -61 99 -84 135 -23 36
-140 223 -260 415 -120 193 -228 366 -240 385 -30 46 -353 562 -417 665 -60
98 -460 738 -487 780 -10 17 -50 80 -88 141 -91 147 -77 124 -293 469 -32 50
-122 194 -200 320 -79 127 -158 253 -176 280 -17 28 -208 334 -424 680 -216
347 -411 659 -434 695 -23 36 -51 79 -62 97 -34 57 -283 455 -349 558 -35 55
-70 111 -78 125 -8 14 -54 89 -103 167 -49 78 -149 238 -222 355 -74 117 -139
222 -145 232 -7 11 -41 66 -77 122 -36 57 -81 129 -101 161 -20 32 -177 284
-350 560 -173 277 -332 532 -354 568 -145 236 -322 519 -332 530 -7 7 -13 16
-13 20 0 3 -22 39 -50 81 -27 41 -50 77 -50 79 0 6 -84 139 -91 145 -3 3 -8
10 -10 15 -2 6 -67 111 -144 233 -77 122 -144 230 -150 240 -41 71 -90 148
-97 150 -4 2 -8 7 -8 12 0 5 -35 64 -77 132 -43 68 -82 132 -88 141 -15 25
-103 164 -150 237 -23 36 -47 75 -54 88 l-12 22 -2304 0 -2305 0 97 -157z"/>
<path d="M22687 30818 c4 -7 30 -50 58 -95 27 -45 74 -122 104 -170 141 -230
257 -419 266 -435 6 -9 126 -216 269 -460 249 -427 277 -476 326 -563 12 -22
41 -74 65 -115 23 -41 55 -100 72 -130 17 -30 41 -75 55 -100 14 -25 44 -81
68 -125 23 -44 50 -93 60 -110 17 -29 73 -136 207 -390 108 -204 486 -969 591
-1195 466 -1004 853 -1998 1130 -2910 119 -389 277 -985 342 -1292 11 -51 27
-123 35 -159 17 -80 27 -127 50 -249 3 -14 7 -36 10 -50 10 -47 15 -75 40
-220 14 -80 28 -157 30 -170 3 -14 7 -38 10 -55 4 -28 30 -203 40 -272 13 -86
35 -244 40 -293 2 -19 6 -53 9 -75 11 -88 21 -179 31 -285 3 -36 7 -81 10
-100 2 -19 7 -71 10 -115 3 -44 8 -102 10 -130 3 -27 7 -95 11 -150 3 -55 7
-122 9 -150 24 -354 24 -1072 0 -1525 -4 -86 -17 -275 -20 -310 -2 -19 -6 -73
-10 -120 -3 -47 -8 -103 -10 -125 -2 -22 -7 -65 -10 -95 -3 -30 -7 -71 -10
-90 -2 -19 -7 -64 -10 -100 -4 -36 -8 -76 -10 -90 -2 -14 -7 -50 -10 -80 -3
-30 -8 -66 -10 -80 -2 -14 -6 -50 -10 -80 -3 -30 -8 -66 -10 -80 -8 -42 -29
-180 -40 -260 -4 -24 -8 -47 -10 -50 -1 -3 -6 -32 -10 -65 -3 -32 -8 -62 -10
-65 -2 -4 -7 -29 -10 -56 -4 -27 -8 -56 -10 -64 -2 -8 -7 -31 -10 -50 -3 -19
-10 -57 -15 -85 -18 -89 -20 -100 -25 -125 -3 -14 -7 -36 -10 -50 -3 -14 -12
-59 -19 -100 -8 -41 -24 -113 -35 -160 -11 -47 -22 -96 -25 -110 -26 -139
-215 -884 -231 -909 -2 -4 -6 -19 -9 -33 -5 -30 -55 -205 -66 -233 -4 -11 -16
-47 -25 -80 -39 -136 -221 -698 -234 -720 -3 -5 -6 -16 -7 -22 -1 -7 -14 -43
-27 -80 -14 -38 -53 -142 -86 -233 -180 -497 -474 -1213 -680 -1655 -23 -48
-41 -88 -41 -90 0 -3 -29 -64 -137 -295 -128 -272 -504 -1018 -645 -1280 -22
-41 -56 -104 -76 -140 -19 -36 -48 -89 -63 -117 -16 -29 -42 -77 -58 -105 -15
-29 -45 -84 -66 -123 -21 -38 -47 -83 -57 -100 -10 -16 -21 -37 -25 -45 -4 -8
-29 -52 -55 -98 -26 -46 -48 -85 -48 -87 0 -2 -43 -76 -95 -166 -52 -89 -95
-165 -95 -168 0 -4 -5 -12 -12 -19 -7 -7 -26 -37 -43 -67 -64 -116 -260 -447
-345 -585 -50 -80 -93 -152 -98 -160 -4 -8 -32 -54 -62 -102 -30 -48 -64 -103
-75 -122 -16 -28 -106 -176 -148 -243 -7 -11 420 -13 2296 -13 l2304 0 109
175 c60 96 135 216 167 267 31 51 70 113 86 138 30 47 545 871 571 914 62 101
156 251 266 426 218 347 1718 2747 1729 2767 6 10 22 36 37 58 14 22 196 312
403 645 207 333 387 621 400 640 12 19 237 379 500 800 262 421 487 781 500
800 12 19 57 91 100 160 42 69 89 143 103 165 14 22 35 56 48 75 12 19 228
366 480 770 252 404 462 737 466 738 4 2 8 8 8 12 0 9 850 1374 870 1397 5 7
10 14 10 16 0 2 52 87 115 188 63 101 115 188 115 193 0 5 -6 17 -13 25 -8 9
-51 77 -97 151 -45 74 -99 160 -119 190 -41 63 -57 89 -67 110 -4 8 -29 46
-54 85 -26 38 -49 77 -53 85 -4 8 -25 42 -47 75 -22 33 -44 69 -50 80 -6 11
-23 39 -38 63 -15 23 -90 142 -166 265 -212 338 -229 366 -251 400 -12 18 -61
97 -110 177 -49 80 -99 159 -112 176 -13 17 -23 34 -23 37 0 3 -18 32 -39 65
-22 32 -50 77 -63 99 -23 40 -405 652 -483 773 -22 36 -99 158 -171 272 -168
270 -160 258 -184 298 -11 19 -45 73 -75 120 -30 47 -80 127 -112 178 -32 51
-65 104 -73 116 -8 13 -31 50 -50 81 -57 93 -64 104 -154 245 -47 74 -107 170
-133 213 -66 108 -57 93 -258 414 -99 158 -181 293 -183 300 -2 7 -7 13 -12
13 -4 0 -10 8 -14 18 -3 9 -53 91 -110 182 -58 91 -126 199 -151 240 -26 41
-70 112 -98 158 -67 106 -417 665 -437 696 -8 13 -31 50 -50 81 -49 80 -53 87
-255 408 -99 158 -187 298 -195 312 -33 54 -275 443 -306 490 -87 135 -174
278 -174 285 0 5 -4 10 -8 12 -4 2 -45 64 -91 138 -45 74 -109 178 -142 230
-32 52 -63 102 -68 110 -5 8 -141 226 -303 483 -161 257 -322 515 -358 573
-122 196 -409 656 -465 744 -13 19 -91 145 -175 280 -84 135 -172 274 -194
310 -23 36 -100 158 -171 273 l-129 207 -2304 0 c-1840 0 -2302 -3 -2295 -12z"/>
<path d="M36738 21615 c-2 -1 -34 -5 -73 -9 -111 -10 -166 -18 -281 -42 -51
-10 -206 -57 -284 -87 -307 -114 -603 -320 -845 -587 -27 -31 -59 -69 -69 -85
-11 -17 -26 -37 -35 -45 -16 -16 -103 -148 -145 -220 -132 -227 -227 -511
-260 -780 -4 -30 -9 -71 -11 -90 -6 -47 -6 -318 -1 -350 3 -14 7 -52 11 -85
14 -141 88 -448 117 -482 6 -7 8 -13 5 -13 -13 0 96 -228 157 -328 194 -322
430 -558 747 -749 221 -133 499 -236 726 -269 26 -3 57 -8 68 -11 111 -22 460
-21 585 1 14 3 43 7 65 11 22 3 47 7 55 10 8 2 27 6 41 9 98 16 309 88 445
151 196 91 435 258 593 416 175 174 376 462 447 644 6 17 24 59 39 95 44 108
96 290 110 390 4 24 8 47 10 50 18 29 26 434 12 565 -62 567 -367 1105 -824
1452 -157 120 -384 248 -528 297 -27 10 -59 21 -70 26 -79 34 -275 79 -434
100 -71 10 -366 21 -373 15z"/>
</g>
</svg>
