<?xml version="1.0" encoding="UTF-8" standalone="no"?>
<svg
        xmlns="http://www.w3.org/2000/svg"
        id="archery"
        version="1.1"
        viewBox="0 0 108 64"
        height="640.0mm"
        width="1100.0mm">
    <g id="flechar">
        <rect id="t0"
              ry="0"
              stroke-width="0.0"
              y="0.0"
              x="0.0"
              height="64.0"
              width="13.0"/>
        <circle cx="103" cy="32" r="6" fill="red"/>
        <circle cx="19" cy="32" r="6" fill="blue"/>
        <path
                id="a2"
                d="m 63,0 13,0 20,32 -20,32 -13,0 c 15,-24 15,-40 0,-64 z"
                fill="black"/>
        <path
                id="a1"
                d="m 38,0 13,0 20,32 -20,32 -13,0 c 15,-24 15,-40 0,-64 z"
                fill="black"/>
        <path
                id="a0"
                d="m 13,0 13,0 20,32 -20,32 -13,0 c 15,-24 15,-40 0,-64 z"
                fill="black"/>
    </g>
</svg>
